# xmcd
#
# Track frame offsets:
#	150
#	16313
#	50876
#	90408
#	111301
#	145430
#	172456
#	212736
#	236612
#
# Disc length: 3852 seconds
#
# Revision: 1
# Processed by: cddbd v1.5.2PL0 Copyright (c) Steve Scherf et al.
# Submitted via: audiograbber 1.83.01
#
DISCID=860f0a09
DTITLE=Eric Clapton - Give Me Strength The '74/'75 Recordings CD 3 Live 1974
DYEAR=2013
DGENRE=Blues
TTITLE0=Smile
TTITLE1=Have You Ever Loved A Woman
TTITLE2=Presence Of The Lord
TTITLE3=Crossroads
TTITLE4=I Shot The Sheriff
TTITLE5=Layla
TTITLE6=Little Wing
TTITLE7=Can't Find My Home
TTITLE8=Driftin' Blues - Ramblin' On My Mind
EXTD=
EXTT0=
EXTT1=
EXTT2=
EXTT3=
EXTT4=
EXTT5=
EXTT6=
EXTT7=
EXTT8=
PLAYORDER=
